<?xml version="1.0" standalone="no"?>
<!DOCTYPE svg PUBLIC "-//W3C//DTD SVG 1.1//EN"
 "http://www.w3.org/Graphics/SVG/1.1/DTD/svg11.dtd">
<!-- Created with svg_stack (http://github.com/astraw/svg_stack) -->
<svg xmlns="http://www.w3.org/2000/svg" xmlns:sodipodi="http://sodipodi.sourceforge.net/DTD/sodipodi-0.dtd" version="1.1" width="2048.0" height="2048.0" style="fill:#483d8b" >
  <defs/>
  <g id="id0:id0" transform="translate(0.0,0.0)"><g id="id0:id0:id0" transform="matrix(0.26666666666666666,0,0,0.26666666666666666,0.0,0.0)"><path d="M1129.433 113v1694.15H903.547l-451.774-451.773V564.773L903.547 113h225.886ZM338.83 564.773v790.604H169.415c-92.806 0-167.9-74.166-169.392-166.609L0 1185.962V734.188c0-92.805 74.166-167.9 166.608-169.392l2.807-.023H338.83ZM1789.951 635 1920 764.926 1724.988 959.94 1920 1154.95 1789.951 1285l-194.89-195.012L1400.05 1285 1270 1154.951l195.012-195.012L1270 764.926 1400.049 635l195.012 195.012L1789.951 635Z" fill-rule="evenodd"/>
</g>
  <g id="id0:id1:id1" transform="matrix(0.26666666666666666,0,0,0.26666666666666666,0.0,512.0)"><path d="M1129.432 113v1694.148H903.545l-451.772-451.773V564.773L903.545 113h225.887Zm542.545 248.057C1832.017 521.097 1920 733.882 1920 960.107c0 226.226-87.983 438.898-248.023 598.938l-79.851-79.85c138.694-138.582 214.93-323.018 214.93-519.087 0-196.183-76.236-380.506-214.93-519.2ZM338.83 564.773v790.602H169.415C75.672 1355.375 0 1279.703 0 1185.96V734.187c0-93.742 75.672-169.414 169.415-169.414H338.83Zm1093.922 36.085c95.776 97.018 148.407 224.644 148.407 359.16 0 134.628-52.631 262.253-148.407 359.272l-80.303-79.174c74.656-75.897 115.767-175.4 115.767-280.099 0-104.585-41.111-204.088-115.767-279.986Z" fill-rule="evenodd"/>
</g>
  <g id="id0:id2:id2" transform="matrix(1.0,0,0,1.0,96.0,1024.0)">
    <!--! Font Awesome Free 6.5.1 by @fontawesome - https://fontawesome.com License - https://fontawesome.com/license/free (Icons: CC BY 4.0, Fonts: SIL OFL 1.1, Code: MIT License) Copyright 2023 Fonticons, Inc. -->
    <path d="M267.5 440.6c9.5 7.9 22.8 9.7 34.1 4.4s18.4-16.6 18.4-29V96c0-12.4-7.2-23.7-18.4-29s-24.5-3.6-34.1 4.4l-192 160L64 241V96c0-17.7-14.3-32-32-32S0 78.3 0 96V416c0 17.7 14.3 32 32 32s32-14.3 32-32V271l11.5 9.6 192 160z"/>
  </g>
  <g id="id0:id3:id3" transform="matrix(1.0,0,0,1.0,0.0,1536.0)">
    <!--! Font Awesome Free 6.5.1 by @fontawesome - https://fontawesome.com License - https://fontawesome.com/license/free (Icons: CC BY 4.0, Fonts: SIL OFL 1.1, Code: MIT License) Copyright 2023 Fonticons, Inc. -->
    <path d="M459.5 440.6c9.5 7.9 22.8 9.7 34.1 4.4s18.4-16.6 18.4-29V96c0-12.4-7.2-23.7-18.4-29s-24.5-3.6-34.1 4.4L288 214.3V256v41.7L459.5 440.6zM256 352V256 128 96c0-12.4-7.2-23.7-18.4-29s-24.5-3.6-34.1 4.4l-192 160C4.2 237.5 0 246.5 0 256s4.2 18.5 11.5 24.6l192 160c9.5 7.9 22.8 9.7 34.1 4.4s18.4-16.6 18.4-29V352z"/>
  </g>
</g>
  <g id="id1:id1" transform="translate(512.0,0.0)"><g id="id1:id0:id0" transform="matrix(1.0,0,0,1.0,32.0,0.0)">
    <!--! Font Awesome Free 6.5.1 by @fontawesome - https://fontawesome.com License - https://fontawesome.com/license/free (Icons: CC BY 4.0, Fonts: SIL OFL 1.1, Code: MIT License) Copyright 2023 Fonticons, Inc. -->
    <path d="M0 96C0 78.3 14.3 64 32 64H416c17.7 0 32 14.3 32 32s-14.3 32-32 32H32C14.3 128 0 113.7 0 96zM0 256c0-17.7 14.3-32 32-32H416c17.7 0 32 14.3 32 32s-14.3 32-32 32H32c-17.7 0-32-14.3-32-32zM448 416c0 17.7-14.3 32-32 32H32c-17.7 0-32-14.3-32-32s14.3-32 32-32H416c17.7 0 32 14.3 32 32z"/>
  </g>
  <g id="id1:id1:id1" transform="matrix(21.333333333333332,0,0,21.333333333333332,0.0,512.0)">
    <path d="M20 4H4c-1.103 0-2 .897-2 2v12c0 1.103.897 2 2 2h16c1.103 0 2-.897 2-2V6c0-1.103-.897-2-2-2zm-9 6H8v4h3v2H8c-1.103 0-2-.897-2-2v-4c0-1.103.897-2 2-2h3v2zm7 0h-3v4h3v2h-3c-1.103 0-2-.897-2-2v-4c0-1.103.897-2 2-2h3v2z"/>
  </g>
  <g id="id1:id2:id2" transform="matrix(1.0,0,0,1.0,0.0,1024.0)">
    <!--! Font Awesome Free 6.5.1 by @fontawesome - https://fontawesome.com License - https://fontawesome.com/license/free (Icons: CC BY 4.0, Fonts: SIL OFL 1.1, Code: MIT License) Copyright 2023 Fonticons, Inc. -->
    <path d="M256 512A256 256 0 1 0 256 0a256 256 0 1 0 0 512zM224 192V320c0 17.7-14.3 32-32 32s-32-14.3-32-32V192c0-17.7 14.3-32 32-32s32 14.3 32 32zm128 0V320c0 17.7-14.3 32-32 32s-32-14.3-32-32V192c0-17.7 14.3-32 32-32s32 14.3 32 32z"/>
  </g>
  <g id="id1:id3:id3" transform="matrix(1.0,0,0,1.0,0.0,1536.0)">
    <!--! Font Awesome Free 6.5.1 by @fontawesome - https://fontawesome.com License - https://fontawesome.com/license/free (Icons: CC BY 4.0, Fonts: SIL OFL 1.1, Code: MIT License) Copyright 2023 Fonticons, Inc. -->
    <path d="M0 256a256 256 0 1 1 512 0A256 256 0 1 1 0 256zM188.3 147.1c-7.6 4.2-12.3 12.3-12.3 20.9V344c0 8.7 4.7 16.7 12.3 20.9s16.8 4.1 24.3-.5l144-88c7.1-4.4 11.5-12.1 11.5-20.5s-4.4-16.1-11.5-20.5l-144-88c-7.4-4.5-16.7-4.7-24.3-.5z"/>
  </g>
</g>
  <g id="id2:id2" transform="translate(1024.0,0.0)"><g id="id2:id0:id0" transform="matrix(1.0,0,0,1.0,0.0,0.0)">
    <!--! Font Awesome Free 6.5.1 by @fontawesome - https://fontawesome.com License - https://fontawesome.com/license/free (Icons: CC BY 4.0, Fonts: SIL OFL 1.1, Code: MIT License) Copyright 2023 Fonticons, Inc. -->
    <path d="M256 512A256 256 0 1 0 256 0a256 256 0 1 0 0 512zM192 160H320c17.7 0 32 14.3 32 32V320c0 17.7-14.3 32-32 32H192c-17.7 0-32-14.3-32-32V192c0-17.7 14.3-32 32-32z"/>
  </g>
  <g id="id2:id1:id1" transform="matrix(0.26666666666666666,0,0,0.26666666666666666,0.0,512.0)"><path d="M1264.84 456.279c31.013 194.462 200.329 343.66 404.01 343.66 2.516 0 5.03 0 7.545-.837v830.653c0 92.202-75.438 167.64-167.64 167.64H167.64c-92.202 0-167.64-75.438-167.64-167.64V623.918c0-92.201 75.438-167.64 167.64-167.64ZM754.378 783.243h-251.46c-138.302 0-251.459 113.157-251.459 251.46v167.639c0 138.302 113.157 251.459 251.46 251.459h251.459v-167.64h-251.46c-46.1 0-83.82-37.719-83.82-83.82v-167.639c0-46.1 37.72-83.82 83.82-83.82h251.46V783.243Zm670.558 0h-251.46c-138.302 0-251.459 113.157-251.459 251.46v167.639c0 138.302 113.157 251.459 251.46 251.459h251.458v-167.64h-251.459c-46.1 0-83.82-37.719-83.82-83.82v-167.639c0-46.1 37.72-83.82 83.82-83.82h251.46V783.243ZM1822.686 121 1920 219.32l-157.749 159.342L1920 538.087l-97.315 98.237-157.748-159.342-157.833 159.342-97.315-98.237 157.833-159.425-157.833-159.341L1507.104 121l157.833 159.425L1822.685 121Z" fill-rule="evenodd"/>
</g>
  <g id="id2:id2:id2" transform="matrix(0.26666666666666666,0,0,0.26666666666666666,0.0,1024.0)"><path d="M1220.701 478.258c30.279 186.41 190.667 329.13 385.59 321.259v803.145c0 88.346-72.283 160.63-160.629 160.63H160.63C72.283 1763.291 0 1691.007 0 1602.661V638.887c0-88.346 72.283-160.629 160.63-160.629Zm144.647 313.251h-240.944c-132.84 0-240.944 108.104-240.944 240.944v160.629c0 132.84 108.104 240.944 240.944 240.944h240.944v-160.63h-240.944c-44.253 0-80.315-36.06-80.315-80.314v-160.63c0-44.252 36.062-80.314 80.315-80.314h240.944V791.51Zm-642.517 0H481.887c-132.84 0-240.943 108.104-240.943 240.944v160.629c0 132.84 108.103 240.944 240.943 240.944h240.944v-160.63H481.887c-44.253 0-80.314-36.06-80.314-80.314v-160.63c0-44.252 36.061-80.314 80.314-80.314h240.944V791.51ZM1825.871 157 1920 251.209l-380.049 380.049-246.887-246.887 94.21-94.13L1539.95 442.92 1825.871 157Z" fill-rule="evenodd"/>
</g>
  <g id="id2:id3:id3" transform="matrix(1.0,0,0,1.0,96.0,1536.0)">
    <!--! Font Awesome Free 6.5.1 by @fontawesome - https://fontawesome.com License - https://fontawesome.com/license/free (Icons: CC BY 4.0, Fonts: SIL OFL 1.1, Code: MIT License) Copyright 2023 Fonticons, Inc. -->
    <path d="M52.5 440.6c-9.5 7.9-22.8 9.7-34.1 4.4S0 428.4 0 416V96C0 83.6 7.2 72.3 18.4 67s24.5-3.6 34.1 4.4l192 160L256 241V96c0-17.7 14.3-32 32-32s32 14.3 32 32V416c0 17.7-14.3 32-32 32s-32-14.3-32-32V271l-11.5 9.6-192 160z"/>
  </g>
</g>
  <g id="id3:id3" transform="translate(1536.0,0.0)"><g id="id3:id0:id0" transform="matrix(1.0,0,0,1.0,0.0,0.0)">
    <!--! Font Awesome Free 6.5.1 by @fontawesome - https://fontawesome.com License - https://fontawesome.com/license/free (Icons: CC BY 4.0, Fonts: SIL OFL 1.1, Code: MIT License) Copyright 2023 Fonticons, Inc. -->
    <path d="M52.5 440.6c-9.5 7.9-22.8 9.7-34.1 4.4S0 428.4 0 416V96C0 83.6 7.2 72.3 18.4 67s24.5-3.6 34.1 4.4L224 214.3V256v41.7L52.5 440.6zM256 352V256 128 96c0-12.4 7.2-23.7 18.4-29s24.5-3.6 34.1 4.4l192 160c7.3 6.1 11.5 15.1 11.5 24.6s-4.2 18.5-11.5 24.6l-192 160c-9.5 7.9-22.8 9.7-34.1 4.4s-18.4-16.6-18.4-29V352z"/>
  </g>
  <g id="id3:id1:id1" transform="matrix(1.0,0,0,1.0,0.0,512.0)">
    <!--! Font Awesome Free 6.5.1 by @fontawesome - https://fontawesome.com License - https://fontawesome.com/license/free (Icons: CC BY 4.0, Fonts: SIL OFL 1.1, Code: MIT License) Copyright 2023 Fonticons, Inc. -->
    <path d="M495.9 166.6c3.2 8.7 .5 18.4-6.4 24.6l-43.3 39.4c1.1 8.3 1.7 16.8 1.7 25.4s-.6 17.1-1.7 25.4l43.3 39.4c6.9 6.2 9.6 15.9 6.4 24.6c-4.4 11.9-9.7 23.3-15.8 34.3l-4.7 8.1c-6.6 11-14 21.4-22.1 31.2c-5.9 7.2-15.7 9.6-24.5 6.8l-55.7-17.7c-13.4 10.3-28.2 18.9-44 25.4l-12.5 57.1c-2 9.1-9 16.3-18.2 17.8c-13.8 2.3-28 3.5-42.5 3.5s-28.7-1.2-42.5-3.5c-9.2-1.5-16.2-8.7-18.2-17.8l-12.5-57.1c-15.8-6.5-30.6-15.1-44-25.4L83.1 425.9c-8.8 2.8-18.6 .3-24.5-6.8c-8.1-9.8-15.5-20.2-22.1-31.2l-4.7-8.1c-6.1-11-11.4-22.4-15.8-34.3c-3.2-8.7-.5-18.4 6.4-24.6l43.3-39.4C64.6 273.1 64 264.6 64 256s.6-17.1 1.7-25.4L22.4 191.2c-6.9-6.2-9.6-15.9-6.4-24.6c4.4-11.9 9.7-23.3 15.8-34.3l4.7-8.1c6.6-11 14-21.4 22.1-31.2c5.9-7.2 15.7-9.6 24.5-6.8l55.7 17.7c13.4-10.3 28.2-18.9 44-25.4l12.5-57.1c2-9.1 9-16.3 18.2-17.8C227.3 1.2 241.5 0 256 0s28.7 1.2 42.5 3.5c9.2 1.5 16.2 8.7 18.2 17.8l12.5 57.1c15.8 6.5 30.6 15.1 44 25.4l55.7-17.7c8.8-2.8 18.6-.3 24.5 6.8c8.1 9.8 15.5 20.2 22.1 31.2l4.7 8.1c6.1 11 11.4 22.4 15.8 34.3zM256 336a80 80 0 1 0 0-160 80 80 0 1 0 0 160z"/>
  </g>
  <g id="id3:id2:id2" transform="matrix(1.0,0,0,1.0,0.0,1024.0)">
    <!--! Font Awesome Free 6.5.1 by @fontawesome - https://fontawesome.com License - https://fontawesome.com/license/free (Icons: CC BY 4.0, Fonts: SIL OFL 1.1, Code: MIT License) Copyright 2023 Fonticons, Inc. -->
    <path d="M48.5 224H40c-13.3 0-24-10.7-24-24V72c0-9.7 5.8-18.5 14.8-22.2s19.3-1.7 26.2 5.2L98.6 96.6c87.6-86.5 228.7-86.2 315.8 1c87.5 87.5 87.5 229.3 0 316.8s-229.3 87.5-316.8 0c-12.5-12.5-12.5-32.8 0-45.3s32.8-12.5 45.3 0c62.5 62.5 163.8 62.5 226.3 0s62.5-163.8 0-226.3c-62.2-62.2-162.7-62.5-225.3-1L185 183c6.9 6.9 8.9 17.2 5.2 26.2s-12.5 14.8-22.2 14.8H48.5z"/>
  </g>
  <g id="id3:id3:id3" transform="matrix(1.0,0,0,1.0,0.0,1536.0)">
    <!--! Font Awesome Free 6.5.1 by @fontawesome - https://fontawesome.com License - https://fontawesome.com/license/free (Icons: CC BY 4.0, Fonts: SIL OFL 1.1, Code: MIT License) Copyright 2023 Fonticons, Inc. -->
    <path d="M463.5 224H472c13.3 0 24-10.7 24-24V72c0-9.7-5.8-18.5-14.8-22.2s-19.3-1.7-26.2 5.2L413.4 96.6c-87.6-86.5-228.7-86.2-315.8 1c-87.5 87.5-87.5 229.3 0 316.8s229.3 87.5 316.8 0c12.5-12.5 12.5-32.8 0-45.3s-32.8-12.5-45.3 0c-62.5 62.5-163.8 62.5-226.3 0s-62.5-163.8 0-226.3c62.2-62.2 162.7-62.5 225.3-1L327 183c-6.9 6.9-8.9 17.2-5.2 26.2s12.5 14.8 22.2 14.8H463.5z"/>
  </g>
</g>
</svg>
